<svg width="200" height="45" viewBox="0 0 200 45" fill="none" xmlns="http://www.w3.org/2000/svg">
<g clip-path="url(#clip0_12_8)">
<mask id="mask0_12_8" style="mask-type:luminance" maskUnits="userSpaceOnUse" x="0" y="0" width="200" height="45">
<path d="M199.624 0H0V44.3803H199.624V0Z" fill="white"/>
</mask>
<g mask="url(#mask0_12_8)">
<path d="M22.2441 35.8357C22.2441 37.4272 20.9531 38.7183 19.3615 38.7183C17.77 38.7183 16.4789 37.4272 16.4789 35.8357C16.4789 34.2441 17.77 32.9531 19.3615 32.9531C20.9531 32.9531 22.2441 34.2441 22.2441 35.8357ZM19.3615 5.76526C20.9531 5.76526 22.2441 4.47418 22.2441 2.88263C22.2441 1.29108 20.9531 0 19.3615 0C17.77 0 16.4789 1.29108 16.4789 2.88263C16.4789 4.47418 17.77 5.76526 19.3615 5.76526ZM5.76526 19.3615C5.76526 17.77 4.47418 16.4789 2.88263 16.4789C1.29108 16.4789 0 17.77 0 19.3615C0 20.9531 1.29108 22.2441 2.88263 22.2441C4.47418 22.2441 5.76526 20.9531 5.76526 19.3615ZM35.8357 16.4789C34.2441 16.4789 32.9531 17.77 32.9531 19.3615C32.9531 20.9531 34.2441 22.2441 35.8357 22.2441C37.4272 22.2441 38.7183 20.9531 38.7183 19.3615C38.7183 17.77 37.4272 16.4789 35.8357 16.4789ZM5.67136 28.9718C4.5446 30.0986 4.5446 31.9249 5.67136 33.0516C6.79812 34.1784 8.62441 34.1784 9.75117 33.0516C10.8779 31.9249 10.8779 30.0986 9.75117 28.9718C8.62441 27.8451 6.79812 27.8451 5.67136 28.9718ZM5.67136 5.67136C4.5446 6.79812 4.5446 8.62441 5.67136 9.75117C6.79812 10.8779 8.62441 10.8779 9.75117 9.75117C10.8779 8.62441 10.8779 6.79812 9.75117 5.67136C8.62441 4.5446 6.79812 4.5446 5.67136 5.67136ZM31.1221 26.9014C29.4648 26.8638 27.8451 26.4085 26.6761 25.2394L25.1362 23.6995C23.9906 22.554 23.5399 20.9812 23.4836 19.3662C23.5399 17.7465 23.9906 16.1737 25.1362 15.0282L26.6761 13.4883C27.8498 12.3146 29.4648 11.8639 31.1221 11.8263C32.1362 11.8028 33.1455 11.4085 33.9249 10.6291C35.5352 9.01878 35.5352 6.41315 33.9249 4.80282C32.3146 3.19249 29.7089 3.19249 28.0986 4.80282C27.3239 5.57746 26.9249 6.58685 26.9014 7.60563C26.8638 9.26291 26.4085 10.8826 25.2394 12.0516L23.6995 13.5915C22.5258 14.7653 20.9108 15.216 19.2535 15.2535C19.2535 15.2535 19.2488 15.2535 19.2441 15.2535C18.7418 15.2676 18.2441 15.3662 17.7746 15.5634C17.7606 15.5681 17.7512 15.5775 17.7371 15.5822C17.2723 15.784 16.831 16.0657 16.4507 16.446C15.446 17.4507 15.0704 18.8451 15.3193 20.1455C15.4695 20.9249 15.8451 21.6667 16.4507 22.2723C16.831 22.6526 17.2723 22.9343 17.7371 23.1362C17.7512 23.1408 17.7606 23.1502 17.7746 23.1549C18.2441 23.3521 18.7418 23.4507 19.2441 23.4648C19.2441 23.4648 19.2488 23.4648 19.2535 23.4648C20.9108 23.5023 22.5305 23.9577 23.6995 25.1268L25.2394 26.6667C26.4131 27.8404 26.8638 29.4554 26.9014 31.1127C26.9249 32.1268 27.3192 33.1362 28.0986 33.9155C29.7089 35.5258 32.3146 35.5258 33.9249 33.9155C35.5352 32.3052 35.5352 29.6995 33.9249 28.0892C33.1502 27.3146 32.1408 26.9155 31.1221 26.892V26.9014Z" fill="#008ECF"/>
<path d="M57.8174 12.1314C59.1836 11.4976 60.7188 11.1784 62.4277 11.1784C63.7939 11.1784 65.0005 11.3755 66.0521 11.7652C67.1038 12.1596 67.977 12.7183 68.6719 13.446C69.362 14.1737 69.8737 15.0563 70.1977 16.0939H74.0099C73.8033 14.338 73.2024 12.8356 72.2071 11.5915C71.2118 10.3427 69.8925 9.38023 68.2352 8.71357C66.5827 8.04221 64.6484 7.70887 62.4277 7.70887C60.5357 7.70887 58.7939 7.96239 57.2118 8.46944C55.6249 8.97648 54.254 9.73704 53.085 10.7417C51.9207 11.7464 51.0146 12.9671 50.3808 14.399C49.747 15.8309 49.4277 17.4976 49.4277 19.3943C49.4277 21.291 49.747 22.9248 50.3808 24.3661C51.0146 25.8122 51.916 27.0281 53.085 28.0093C54.254 28.9906 55.6296 29.737 57.2118 30.2441C58.7939 30.7464 60.5357 31.0047 62.4277 31.0047C64.6249 31.0047 66.5498 30.676 68.2024 30.0187C69.8597 29.3568 71.1789 28.4084 72.1742 27.1737C73.1695 25.9389 73.7799 24.4507 74.0099 22.7183H70.1648C69.8409 23.7136 69.3291 24.5727 68.639 25.3004C67.9442 26.0328 67.0803 26.5868 66.0381 26.9671C64.9958 27.3474 63.7939 27.5352 62.4277 27.5352C60.7188 27.5352 59.1836 27.2253 57.8174 26.5962C56.4512 25.9718 55.3855 25.0563 54.6108 23.8403C53.8409 22.6291 53.4512 21.1455 53.4512 19.3849C53.4512 17.6244 53.8362 16.1079 54.6108 14.8967C55.3855 13.6807 56.4559 12.7558 57.8174 12.122V12.1314ZM95.8362 26.8826C94.9723 28.2253 93.7892 29.2394 92.2822 29.9342C90.7752 30.6291 89.0662 30.9765 87.146 30.9765C85.2259 30.9765 83.5075 30.6291 81.9817 29.9342C80.4559 29.2394 79.254 28.2253 78.3761 26.8826C77.4982 25.5399 77.0568 23.9108 77.0568 21.9906C77.0568 20.0704 77.4982 18.4741 78.3761 17.122C79.254 15.7699 80.4559 14.737 81.9817 14.0187C83.5075 13.3051 85.2306 12.9436 87.146 12.9436C89.0615 12.9436 90.7799 13.3051 92.2822 14.0187C93.7845 14.737 94.9676 15.7699 95.8362 17.122C96.7047 18.4741 97.1367 20.0985 97.1367 21.9906C97.1367 23.8826 96.7047 25.5399 95.8362 26.8826ZM93.2212 21.9953C93.2212 20.7511 92.9442 19.6854 92.4043 18.8075C91.8597 17.9295 91.1367 17.2535 90.2212 16.7793C89.3057 16.3051 88.2869 16.0704 87.1507 16.0704C86.0146 16.0704 84.9911 16.3051 84.0662 16.7652C83.1413 17.2253 82.3996 17.8967 81.8315 18.7746C81.2634 19.6525 80.9817 20.7277 80.9817 21.9953C80.9817 23.2629 81.2587 24.3098 81.8174 25.1877C82.3714 26.061 83.1179 26.723 84.0522 27.1596C84.9911 27.6009 86.0193 27.8215 87.1507 27.8215C88.2822 27.8215 89.2822 27.6009 90.2071 27.1596C91.1273 26.723 91.8644 26.061 92.4043 25.1877C92.9489 24.3098 93.2212 23.2441 93.2212 21.9953ZM113.592 26.7981C112.611 27.4835 111.357 27.8215 109.831 27.8215C108.695 27.8215 107.658 27.6056 106.709 27.1784C105.761 26.7511 105.01 26.0985 104.437 25.2206C103.869 24.3427 103.587 23.2676 103.587 21.9953C103.587 20.723 103.869 19.6197 104.437 18.7511C105.005 17.8873 105.761 17.2253 106.709 16.7746C107.658 16.3239 108.695 16.0985 109.831 16.0985C111.216 16.0985 112.423 16.4413 113.451 17.122C114.479 17.8028 115.193 18.7605 115.583 19.9812H119.118C118.982 18.5023 118.508 17.2441 117.695 16.2018C116.888 15.1596 115.813 14.3568 114.475 13.7887C113.132 13.2206 111.583 12.9389 109.831 12.9389C107.935 12.9389 106.216 13.3004 104.681 14.014C103.146 14.7323 101.925 15.7605 101.024 17.0985C100.123 18.4413 99.6719 20.0704 99.6719 21.9906C99.6719 23.9108 100.123 25.5399 101.024 26.8826C101.925 28.2253 103.146 29.2394 104.681 29.9342C106.216 30.6291 107.935 30.9765 109.831 30.9765C111.587 30.9765 113.141 30.6995 114.493 30.1408C115.846 29.5868 116.93 28.7793 117.738 27.7183C118.55 26.6572 119.024 25.3802 119.16 23.9014H115.625C115.254 25.1455 114.578 26.1126 113.597 26.7934L113.592 26.7981ZM141.724 21.9953C141.724 23.9154 141.292 25.5446 140.423 26.8873C139.559 28.23 138.376 29.2441 136.869 29.9389C135.362 30.6338 133.653 30.9812 131.733 30.9812C129.813 30.9812 128.094 30.6338 126.569 29.9389C125.043 29.2441 123.841 28.23 122.963 26.8873C122.085 25.5446 121.644 23.9154 121.644 21.9953C121.644 20.0751 122.085 18.4788 122.963 17.1267C123.841 15.7746 125.043 14.7417 126.569 14.0234C128.094 13.3098 129.817 12.9483 131.733 12.9483C133.648 12.9483 135.367 13.3098 136.869 14.0234C138.371 14.7417 139.554 15.7746 140.423 17.1267C141.292 18.4788 141.724 20.1032 141.724 21.9953ZM137.808 21.9953C137.808 20.7511 137.531 19.6854 136.991 18.8075C136.447 17.9295 135.724 17.2535 134.808 16.7793C133.893 16.3051 132.874 16.0704 131.738 16.0704C130.601 16.0704 129.578 16.3051 128.653 16.7652C127.728 17.2253 126.986 17.8967 126.418 18.7746C125.85 19.6525 125.569 20.7277 125.569 21.9953C125.569 23.2629 125.846 24.3098 126.404 25.1877C126.958 26.061 127.705 26.723 128.639 27.1596C129.578 27.6009 130.606 27.8215 131.738 27.8215C132.869 27.8215 133.869 27.6009 134.794 27.1596C135.714 26.723 136.451 26.061 136.991 25.1877C137.536 24.3098 137.808 23.2441 137.808 21.9953ZM163.029 26.8826C162.165 28.2253 160.982 29.2394 159.475 29.9342C157.968 30.6291 156.259 30.9765 154.339 30.9765C152.418 30.9765 150.7 30.6291 149.174 29.9342C147.648 29.2441 146.447 28.2253 145.569 26.8826C144.691 25.5399 144.249 23.9108 144.249 21.9906C144.249 20.0704 144.691 18.4741 145.569 17.122C146.447 15.7699 147.648 14.737 149.174 14.0187C150.7 13.3051 152.423 12.9436 154.339 12.9436C156.254 12.9436 157.972 13.3051 159.475 14.0187C160.977 14.737 162.16 15.7699 163.029 17.122C163.897 18.4741 164.329 20.0985 164.329 21.9906C164.329 23.8826 163.897 25.5399 163.029 26.8826ZM160.414 21.9953C160.414 20.7511 160.137 19.6854 159.597 18.8075C159.052 17.9295 158.329 17.2535 157.414 16.7793C156.498 16.3051 155.479 16.0704 154.343 16.0704C153.207 16.0704 152.184 16.3051 151.259 16.7652C150.334 17.2253 149.592 17.8967 149.024 18.7746C148.456 19.6525 148.174 20.7277 148.174 21.9953C148.174 23.2629 148.451 24.3098 149.01 25.1877C149.564 26.061 150.31 26.723 151.245 27.1596C152.184 27.6009 153.212 27.8215 154.343 27.8215C155.475 27.8215 156.475 27.6009 157.4 27.1596C158.32 26.723 159.057 26.061 159.597 25.1877C160.141 24.3098 160.414 23.2441 160.414 21.9953ZM173.432 14.9389C172.935 15.5258 172.54 16.1361 172.254 16.7605C171.963 17.3849 171.752 17.9577 171.611 18.4788V13.3286H167.761V30.5962H171.611V20.9906C171.827 20.46 172.127 19.9154 172.512 19.3662C173.043 18.6009 173.756 17.9577 174.644 17.4225C175.536 16.892 176.606 16.6291 177.85 16.6291V12.953C176.855 12.953 175.996 13.1408 175.268 13.507C174.536 13.8779 173.925 14.3615 173.428 14.9483L173.432 14.9389ZM199.625 13.3286V30.5962H196.019C195.925 29.723 195.855 28.9624 195.808 28.3239C195.761 27.6901 195.738 27.0798 195.738 26.5023V24.9953C195.461 26.0469 195.029 27.0234 194.437 27.9248C193.85 28.8262 193.062 29.5633 192.08 30.1267C191.099 30.6948 189.888 30.9765 188.461 30.9765C186.883 30.9765 185.447 30.5962 184.141 29.8356C182.836 29.0704 181.799 28.014 181.024 26.6619C180.254 25.3098 179.86 23.7558 179.86 22C179.86 20.2441 180.254 18.6197 181.043 17.2676C181.827 15.9201 182.888 14.8591 184.231 14.0985C185.573 13.3333 187.076 12.953 188.738 12.953C190.587 12.953 192.057 13.3568 193.141 14.169C194.226 14.9765 195 16.061 195.461 17.4272C195.569 17.7417 195.658 18.0657 195.738 18.3943V13.338H199.62L199.625 13.3286ZM195.738 21.9953C195.738 20.7699 195.498 19.723 195.01 18.8544C194.526 17.9906 193.827 17.3192 192.925 16.845C192.029 16.3755 190.925 16.1361 189.634 16.1361C187.785 16.1361 186.348 16.6807 185.334 17.7652C184.32 18.8497 183.808 20.2629 183.808 21.9953C183.808 23.1267 184.057 24.1314 184.554 25.014C185.052 25.8967 185.738 26.5727 186.62 27.061C187.503 27.5492 188.503 27.7934 189.639 27.7934C190.93 27.7934 192.038 27.5446 192.949 27.0469C193.86 26.5493 194.554 25.8638 195.029 24.9812C195.503 24.1032 195.738 23.1079 195.738 22V21.9953Z" fill="#102D69"/>
</g>
</g>
<defs>
<clipPath id="clip0_12_8">
<rect width="200" height="44.6009" fill="white"/>
</clipPath>
</defs>
</svg>
